<svg xmlns="http://www.w3.org/2000/svg" xmlns:xlink="http://www.w3.org/1999/xlink" width="437" height="428" viewBox="0 0 437 428">
  <defs>
    <clipPath id="clip-path">
      <rect id="Rectangle_157" data-name="Rectangle 157" width="437" height="428" transform="translate(4153 1284)" fill="#fff" stroke="#707070" stroke-width="1"/>
    </clipPath>
    <clipPath id="clip-path-2">
      <path id="Path_1947" data-name="Path 1947" d="M0-13.82H434V266H0Z" transform="translate(4155 1284)" fill="#ff6803"/>
    </clipPath>
    <clipPath id="clip-path-3">
      <path id="Path_1946" data-name="Path 1946" d="M4166.09,1514.137c31.154,0,36.525,21.378,78.423,0s37.6,36.649,92.389,0,113.875,30.54,163.292,9.162,71.977-39.7,108.5-32.576,19.337-235.161,19.337-235.161l-307.247-5.09s-271.795,3.054-272.869,5.09,71.978,258.575,71.978,258.575Z" transform="translate(0 1.756)" fill="#fff"/>
    </clipPath>
    <clipPath id="clip-path-4">
      <path id="Path_1912" data-name="Path 1912" d="M576.235,366.765c.137-2.008.825-5.37,4.633-9.111,9.439-15.886,30.375-43.143,30.375-43.143L595.517,297.77s-29.6,39.033-29.682,41.24c-27.394.951-44.26,21.146-48.7,26.825-5.8-2.746-39.824-2.114-39.824-2.114l.515,24.858s39.57-2.536,45.657-2.028,12.176,2.028,15.22,7.1a67.411,67.411,0,0,1,4.5,10.041s34.617,6.214,39.184-18.644C582.388,385.048,574.207,375.388,576.235,366.765Z" transform="translate(-477.31 -297.77)" fill="none"/>
    </clipPath>
  </defs>
  <g id="Mask_Group_37" data-name="Mask Group 37" transform="translate(-4153 -1284)" clip-path="url(#clip-path)">
    <g id="Group_771" data-name="Group 771">
      <rect id="Rectangle_156" data-name="Rectangle 156" width="434" height="70" transform="translate(4155 1642)" fill="#ff6803"/>
      <g id="Mask_Group_36" data-name="Mask Group 36" transform="translate(0 152.772)" clip-path="url(#clip-path-2)">
        <g id="Group_768" data-name="Group 768" transform="translate(4139 1252.806)">
          <path id="Intersection_2" data-name="Intersection 2" d="M272.166,233.043c-29.876-10.464-60.7-20.93-90.265-1.15-29.8,19.931-42.119,11.859-53.9,3.788-9.879-6.771-19.379-13.541-38.489-3.788-41.9,21.379-47.269,0-78.423,0H-5V-22H439V206.92c-28.7-.351-51.342,15.765-93.807,34.135a53.932,53.932,0,0,1-21.729,4.3C306.99,245.355,289.74,239.2,272.166,233.043Z" transform="translate(16 31.194)" fill="#fff"/>
          <path id="Intersection_3" data-name="Intersection 3" d="M292.233,233.043c-32.079-10.465-65.171-20.929-96.919-1.15-32,19.931-45.225,11.86-57.873,3.788-10.608-6.77-20.808-13.54-41.327-3.788-44.987,21.379-50.754,0-84.206,0H0V0H466V207.025c-28.38,1.444-52.437,16.738-95.355,34.03a61.638,61.638,0,0,1-23.332,4.3C329.624,245.355,311.1,239.2,292.233,233.043Z" transform="translate(0 17.492)" fill="none" stroke="#ff6803" stroke-width="1" opacity="0.23"/>
          <path id="Intersection_4" data-name="Intersection 4" d="M292.233,233.043c-32.079-10.465-65.171-20.929-96.919-1.15-32,19.931-45.225,11.86-57.873,3.788-10.608-6.77-20.808-13.54-41.327-3.788-44.987,21.379-50.754,0-84.206,0H0V0H466V207.025c-28.38,1.444-52.437,16.738-95.355,34.03a61.638,61.638,0,0,1-23.332,4.3C329.624,245.355,311.1,239.2,292.233,233.043Z" transform="translate(0 0)" fill="none" stroke="#ff6803" stroke-width="1" opacity="0.05"/>
        </g>
      </g>
      <g id="Mask_Group_35" data-name="Mask Group 35" transform="translate(0 147.772)" clip-path="url(#clip-path-3)">
        <g id="Layer_2" data-name="Layer 2" transform="translate(4195.775 1300.824)">
          <g id="Слой_1" data-name="Слой 1">
            <path id="Path_1859" data-name="Path 1859" d="M1242.71,364.82l52.628,22.955-20.544,47.1-39.87-17.391-12.757-5.564-12.756-5.565,14.978-34.341A13.918,13.918,0,0,1,1242.71,364.82Z" transform="translate(-1001.862 -301.248)" fill="#232323"/>
            <path id="Path_1860" data-name="Path 1860" d="M1327.8,545.824l23.554,10.274-9.478-10.408Z" transform="translate(-1099.935 -452.044)" fill="#fff"/>
            <path id="Path_1861" data-name="Path 1861" d="M1333.547,469.68l-5.747,13.178,13.4-.975Z" transform="translate(-1099.935 -389.078)" fill="#fff"/>
            <path id="Path_1862" data-name="Path 1862" d="M1384.844,479.954,1361.29,469.68l8.9,11.726Z" transform="translate(-1127.677 -389.078)" fill="#fff"/>
            <path id="Path_1863" data-name="Path 1863" d="M1416.1,532.244l8.4,10.484,5.747-13.178Z" transform="translate(-1173.081 -438.673)" fill="#fff"/>
            <path id="Path_1864" data-name="Path 1864" d="M1310.15,713.923l9.875-32.423,15.095,6.585-13.3,38.638Z" transform="translate(-1085.314 -564.547)"/>
            <path id="Path_1865" data-name="Path 1865" d="M1543.441,495.99h0a13.918,13.918,0,0,1,7.192,18.321l-14.98,34.341-25.513-11.127,14.98-34.343a13.918,13.918,0,0,1,18.321-7.192Z" transform="translate(-1250.983 -409.908)"/>
            <rect id="Rectangle_154" data-name="Rectangle 154" width="45.51" height="5.292" transform="matrix(-0.917, -0.4, 0.4, -0.917, 300.89, 145.797)"/>
            <path id="Path_1866" data-name="Path 1866" d="M1191.6,55.624a78.243,78.243,0,0,0,5.764-9.123c2-3.861,11.994-15,16.99-22.38a10.767,10.767,0,0,0,1.828-6.645c-.184-3.261-.07-8.356,1.948-11.688C1221.3.563,1224.843,0,1224.843,0s4.328.947,3.545,2.887a32.508,32.508,0,0,1-3.015,5.02s-2.6,5.32-1.522,6.418,2.778-2.32,3.789-3.132c.712-.573,2.267-1.5,1.69.592s-5.754,7.668-7.8,9.627-3.525,17.815-12.2,30.634-8.974,12.9-8.974,12.9Z" transform="translate(-987.108)" fill="#efa583"/>
            <path id="Path_1867" data-name="Path 1867" d="M576.235,366.765c.137-2.008.825-5.37,4.633-9.111,9.439-15.886,30.375-43.143,30.375-43.143L595.517,297.77s-29.6,39.033-29.682,41.24c-27.394.951-44.26,21.146-48.7,26.825-5.8-2.746-39.824-2.114-39.824-2.114l.515,24.858s39.57-2.536,45.657-2.028,12.176,2.028,15.22,7.1a67.411,67.411,0,0,1,4.5,10.041s34.617,6.214,39.184-18.644C582.388,385.048,574.207,375.388,576.235,366.765Z" transform="translate(-395.398 -246.669)" fill="#043760"/>
            <path id="Path_1868" data-name="Path 1868" d="M698.66,564.942s-6.087,11.352,1.9,20.357c4,.515,18.96-3.614,24.159,17.5,0,0,30.89,7.927,39.191-19.279,0,0-13.634-14.2-1.522-27.14-.381-2.536-1.332-19.976-16.361-18.644C746.03,537.739,716.866,539.3,698.66,564.942Z" transform="translate(-576.924 -445.398)" fill="#043760"/>
            <path id="Path_1869" data-name="Path 1869" d="M576.235,368.7c2.03-8.581,35.009-52.036,35.009-52.036L595.514,300s-29.6,38.661-29.678,40.857c-21.566,4.167-44.375,18.989-48.7,26.929-5.8-2.746-39.824-2.113-39.824-2.113l.515,24.755s39.57-2.526,45.657-2.022,12.176,2.022,15.22,7.074a66.635,66.635,0,0,1,4.5,10s34.617,6.188,39.184-18.567C582.388,386.913,574.207,377.294,576.235,368.7Z" transform="translate(-395.398 -248.517)" fill="none"/>
            <path id="Path_1870" data-name="Path 1870" d="M125.133,686.334s-13.693-.625-18.771-1.4c-4.3-.645-19.183.9-28.094.609a10.767,10.767,0,0,1-6.451-2.413c-2.528-2.059-6.72-4.966-10.606-5.289-6.087-.517-8.623,2.028-8.623,2.028s-1.776,4.059.254,4.567a32.542,32.542,0,0,0,5.835.515s5.835,1.016,6.089,2.536-5.581.515-6.341,1.016-2.284,1.522-.254,2.282,10.908-.515,13.7-1.014,16.488,7.609,31.961,8.117,21.307-.515,21.307-.515Z" transform="translate(-42.968 -561.463)" fill="#efa583"/>
            <path id="Path_1871" data-name="Path 1871" d="M1214.157,1062.184s7.99,9.892,8.752,26.634c.254,12.176-2.282,12.555-11.033,13.7,0,0-22.449-2.663-30.82-12.936S1201.6,1061.042,1214.157,1062.184Z" transform="translate(-977.134 -879.859)" fill="#efa583"/>
            <path id="Path_1872" data-name="Path 1872" d="M695.935,435s-10.374-4.15-9.8-21.9a14.234,14.234,0,0,1,3.089-8.5,11.667,11.667,0,0,1,7.472-4.355h15.22s16.741,3.8,11.67,23.59Z" transform="translate(-568.364 -331.563)" fill="#c77a47"/>
            <ellipse id="Ellipse_131" data-name="Ellipse 131" cx="19.531" cy="18.009" rx="19.531" ry="18.009" transform="translate(116.685 65.727) rotate(-78.53)" fill="#c77a47"/>
            <ellipse id="Ellipse_132" data-name="Ellipse 132" cx="11.204" cy="10.331" rx="11.204" ry="10.331" transform="translate(135.757 31.446) rotate(-78.53)" fill="#c77a47"/>
            <path id="Path_1873" data-name="Path 1873" d="M764.859,392.9l-14.839.254.127-1.776,14.712.633Z" transform="translate(-621.308 -324.215)" fill="#d01915"/>
            <path id="Path_1874" data-name="Path 1874" d="M823.6,177.354,813.58,172.9l.252-1.016,10.412,3.717Z" transform="translate(-673.961 -142.383)" fill="#d01915"/>
            <path id="Path_1875" data-name="Path 1875" d="M933.3,1289.039s13.317,7.99,25.874,7.23,19.023-9.893,22.068-10.654,5.706,2.664,5.706,2.664l.762-9.131s-3.8-6.087-30.058-6.087Z" transform="translate(-773.135 -1054.589)" fill="#efa583"/>
            <path id="Path_1876" data-name="Path 1876" d="M1246.37,1322.381h-.245c-1.335-.088-4.462-1.085-4.73-8.454a59.98,59.98,0,0,1,.07-7.6c.158-1.474.422-2.1.977-2.291a.858.858,0,0,1,.717.067l3.825.686.12.432c.343,1.236,3.327,12.142,2.933,14.512A3.748,3.748,0,0,1,1246.37,1322.381Zm-3.343-16.866c-.172.657-.415,2.617-.209,8.354.156,4.373,1.4,6.955,3.4,7.084a2.417,2.417,0,0,0,2.418-1.467c.252-1.515-1.483-8.718-2.782-13.466Z" transform="translate(-1028.293 -1080.205)" fill="#282828"/>
            <path id="Path_1877" data-name="Path 1877" d="M720.825,202.289a25.212,25.212,0,0,0-6.157,9.748,17.847,17.847,0,0,0,.5,11.978c.2.5,1,.28.807-.223a17.1,17.1,0,0,1-.5-11.532,24.29,24.29,0,0,1,5.943-9.38C721.791,202.493,721.2,201.9,720.825,202.289Z" transform="translate(-591.356 -167.469)" fill="#ffdc8d"/>
            <path id="Path_1878" data-name="Path 1878" d="M735.723,284.182a15.193,15.193,0,0,1-2.1-5.092,10.956,10.956,0,0,1,.417-5.183c.158-.515-.649-.736-.807-.221a11.889,11.889,0,0,0-.455,5.407,15.586,15.586,0,0,0,2.231,5.51c.28.46,1,.039.723-.422Z" transform="translate(-606.919 -226.477)" fill="#ffdc8d"/>
            <path id="Path_1879" data-name="Path 1879" d="M705.818,464.32a19.347,19.347,0,0,1,1.419-18.338c.3-.453-.429-.872-.723-.422a20.2,20.2,0,0,0-1.419,19.183C705.319,465.233,706.039,464.808,705.818,464.32Z" transform="translate(-582.624 -368.937)" fill="#ffdc8d"/>
            <path id="Path_1880" data-name="Path 1880" d="M722.526,483.253a12.012,12.012,0,0,1,1.414-8.066.419.419,0,0,0-.722-.422,12.93,12.93,0,0,0-1.5,8.709C721.814,484,722.62,483.78,722.526,483.253Z" transform="translate(-597.694 -393.121)" fill="#ffdc8d"/>
            <path id="Path_1881" data-name="Path 1881" d="M822.175,92.461a7.6,7.6,0,0,1,3.988-9.981c.5-.192.28-1-.223-.807a8.448,8.448,0,0,0-4.488,11.21C821.682,93.371,822.4,92.947,822.175,92.461Z" transform="translate(-679.87 -67.633)" fill="#ffdc8d"/>
            <path id="Path_1882" data-name="Path 1882" d="M838.805,117.2a3.007,3.007,0,0,1,.9-3.406c.412-.343-.182-.935-.592-.592A3.813,3.813,0,0,0,838,117.422C838.184,117.923,838.992,117.705,838.805,117.2Z" transform="translate(-693.995 -93.688)" fill="#ffdc8d"/>
            <path id="Path_1883" data-name="Path 1883" d="M855.319,442.734a15.325,15.325,0,0,0-1.2-7.82c-.213-.493-.934-.067-.723.422a14.516,14.516,0,0,1,1.086,7.4c-.06.535.777.53.836,0Z" transform="translate(-706.911 -360.096)" fill="#95552a"/>
            <path id="Path_1884" data-name="Path 1884" d="M872.982,448.4a11.049,11.049,0,0,0-1.184-6.791c-.252-.475-.975-.053-.722.422a10.1,10.1,0,0,1,1.1,6.147C872.1,448.708,872.909,448.936,872.982,448.4Z" transform="translate(-721.546 -365.655)" fill="#95552a"/>
            <path id="Path_1885" data-name="Path 1885" d="M872.1,238.929c1.078,3.968,0,8.507-1.6,12.184-.211.489.515.916.723.422,1.683-3.884,2.823-8.63,1.683-12.826a.418.418,0,0,0-.807.221Z" transform="translate(-721.078 -197.501)" fill="#95552a"/>
            <path id="Path_1886" data-name="Path 1886" d="M862.9,241.706a5.826,5.826,0,0,1-.041,4.244.419.419,0,0,0,.807.223,6.636,6.636,0,0,0-.043-4.889C863.413,240.791,862.692,241.217,862.9,241.706Z" transform="translate(-714.77 -199.695)" fill="#95552a"/>
            <path id="Path_1887" data-name="Path 1887" d="M858.573,277.642a22.176,22.176,0,0,0,6.521-18.191c-.06-.53-.9-.535-.837,0a21.383,21.383,0,0,1-6.267,17.6c-.388.376.2.968.59.592Z" transform="translate(-710.644 -214.595)" fill="#95552a"/>
            <path id="Path_1888" data-name="Path 1888" d="M876.094,97.948a3.748,3.748,0,0,1,2.286,3.116c.048.534.885.537.838,0a4.634,4.634,0,0,0-2.9-3.923C875.819,96.937,875.6,97.746,876.094,97.948Z" transform="translate(-725.517 -80.444)" fill="#95552a"/>
            <path id="Path_1889" data-name="Path 1889" d="M886.838,89.45l1.534,1.888c.343.419.928-.172.592-.592q-.767-.946-1.545-1.888c-.343-.419-.928.172-.59.592Z" transform="translate(-734.555 -73.49)" fill="#95552a"/>
            <path id="Path_1890" data-name="Path 1890" d="M1179.4,1092.107h4.565a19.211,19.211,0,0,0,4.058-6.087s22.322-6.595,26-23.59l-30.058,11.414Z" transform="translate(-977.002 -880.105)" fill="#63391d" opacity="0.51"/>
            <path id="Path_1891" data-name="Path 1891" d="M933.3,1284.748s17.376,2.4,22.956-1.141,16.233-14.2,16.233-14.2l-11.155-1.522S948.007,1280.183,933.3,1284.748Z" transform="translate(-773.135 -1050.298)" fill="#63391d" opacity="0.51"/>
            <path id="Path_1892" data-name="Path 1892" d="M811.157,808.981s-9.131,6.6-5.074,26.888-2.536,46.678-5.073,49.209c0,0,11.67,3.043,18.263-.515,0,0,17.757.515,22.824-4.059a92.513,92.513,0,0,0,9.131-9.639s7.1,0,10.147-3.043,11.155-8.117,11.155-21.307c0,0,7.1,2.536,16.234-3.552s12.682-11.155,12.682-11.155,7.1-10.654,1.014-16.741c0,0,5.074-4.059,9.133-7.1s10.654-7.609,11.669-13.19,0-9.64-5.073-8.117c-7.551,2.264-18.771,5.073-27.9,4.059-7.077-.786-12.184-10.146-39.064-1.522C851.234,789.2,849.205,813.042,811.157,808.981Z" transform="translate(-663.548 -650.756)" fill="#ff6803"/>
            <path id="Path_1893" data-name="Path 1893" d="M809.749,808.352a8,8,0,0,0-.9.837c-.283.3-.546.613-.8.934a17.019,17.019,0,0,0-1.352,2.049,21.72,21.72,0,0,0-1.871,4.534,28.41,28.41,0,0,0-.937,4.819,35.765,35.765,0,0,0-.192,4.906c0,.2.01.41.021.614l.031.613.033.614.051.611c.038.408.062.817.112,1.224l.146,1.22c.022.2.053.405.084.608l.094.607c.063.4.117.81.2,1.212.151.807.3,1.611.456,2.418.3,1.615.527,3.242.7,4.874s.288,3.273.359,4.912a107.031,107.031,0,0,1-1.107,19.643c-.474,3.249-1.073,6.48-1.835,9.675-.384,1.6-.807,3.187-1.306,4.755-.249.783-.515,1.562-.827,2.327-.154.383-.318.764-.5,1.136a4.585,4.585,0,0,1-.7,1.069l-.072-.266a43.324,43.324,0,0,0,4.555.839,39.666,39.666,0,0,0,4.62.343c.771.014,1.544,0,2.312-.051a21.88,21.88,0,0,0,2.294-.257,14.171,14.171,0,0,0,4.356-1.4l.043-.024h.05c1.526.029,3.062.01,4.591-.039s3.062-.136,4.585-.264,3.048-.3,4.556-.542a34.515,34.515,0,0,0,4.462-.978l.546-.172.539-.189.268-.093.264-.106c.172-.072.343-.141.525-.216a10.177,10.177,0,0,0,1.951-1.116c.144-.118.29-.23.432-.354l.422-.388c.283-.257.565-.515.841-.783.556-.525,1.1-1.061,1.644-1.6q1.622-1.624,3.161-3.331c1.03-1.136,2.035-2.293,3-3.479l.063-.077h.1c.733-.01,1.476-.064,2.21-.141s1.469-.189,2.193-.335a17.79,17.79,0,0,0,2.138-.561,11.171,11.171,0,0,0,2.011-.877,7.273,7.273,0,0,0,.9-.6,9.463,9.463,0,0,0,.812-.738c.547-.515,1.112-1.007,1.666-1.505a38.126,38.126,0,0,0,3.18-3.115,22.5,22.5,0,0,0,4.546-7.551,25.788,25.788,0,0,0,1.419-8.718v-.288l.3.1a10.223,10.223,0,0,0,1.544.343q.8.115,1.6.149a18.287,18.287,0,0,0,3.211-.172,21.694,21.694,0,0,0,6.151-1.871,27.176,27.176,0,0,0,2.835-1.545l.686-.438.671-.46c.444-.309.9-.6,1.333-.928,1.766-1.256,3.479-2.588,5.111-4.012a46.238,46.238,0,0,0,4.6-4.565q.257-.306.515-.621a7.542,7.542,0,0,0,.47-.633c.287-.453.554-.922.808-1.4a25.63,25.63,0,0,0,1.342-2.938,19.471,19.471,0,0,0,.915-3.089,13.844,13.844,0,0,0,.3-3.187,9.214,9.214,0,0,0-.645-3.089,7.894,7.894,0,0,0-1.745-2.624l-.172-.172.2-.156c3.6-2.869,7.242-5.713,10.95-8.452a50.769,50.769,0,0,0,5.282-4.409,22.4,22.4,0,0,0,2.267-2.56,13.292,13.292,0,0,0,1.7-2.936c.11-.261.2-.529.287-.8l.113-.407c.04-.136.062-.275.093-.412.113-.553.2-1.124.268-1.689a13.7,13.7,0,0,0,.029-3.393,5.679,5.679,0,0,0-.446-1.6,1.429,1.429,0,0,0-.093-.184l-.1-.172a3.461,3.461,0,0,0-.235-.33,2.952,2.952,0,0,0-.273-.3c-.048-.045-.1-.084-.154-.127a.811.811,0,0,0-.077-.062l-.084-.055a2.967,2.967,0,0,0-1.527-.463,5.836,5.836,0,0,0-1.653.192l-.408.112-.414.122-.831.244-1.665.475-1.67.455-1.677.433c-2.231.561-4.494,1.057-6.768,1.46s-4.566.721-6.864.9a44.727,44.727,0,0,1-6.933.05c-.578-.053-1.153-.081-1.735-.185-.146-.017-.287-.058-.431-.087s-.287-.058-.427-.1c-.28-.082-.563-.154-.838-.254-1.105-.372-2.159-.858-3.209-1.328s-2.1-.942-3.17-1.351a28.464,28.464,0,0,0-3.273-1.05,29.158,29.158,0,0,0-3.379-.678,32.754,32.754,0,0,0-3.432-.256,43.845,43.845,0,0,0-6.864.414,68.947,68.947,0,0,0-6.775,1.292l-1.673.421c-.556.146-1.109.307-1.663.46l-.832.233-.826.252-1.649.5.082-.1a16.009,16.009,0,0,1-.7,3.038c-.086.244-.172.492-.254.734l-.283.726c-.208.474-.407.954-.647,1.412a21.8,21.8,0,0,1-3.522,5.1,23.843,23.843,0,0,1-4.755,3.969c-.218.139-.431.287-.654.419l-.676.379-.686.379q-.167.094-.343.172l-.343.172-.7.343c-.234.11-.465.227-.707.318l-1.44.578c-.118.05-.242.091-.364.13l-.369.122-.74.242c-.245.079-.489.172-.736.24l-.75.2c-.5.129-1,.273-1.5.39l-1.517.309c-.252.05-.5.108-.759.151l-.767.113-1.532.227c-.515.062-1.03.1-1.545.151l-.772.074c-.256.024-.515.051-.772.058A74.024,74.024,0,0,1,809.749,808.352Zm0,0a74.172,74.172,0,0,0,12.356.292c.257,0,.515-.038.77-.062l.769-.077c.515-.053,1.03-.094,1.545-.158l1.529-.233.765-.115c.254-.045.5-.1.757-.154l1.514-.316c.5-.12,1-.266,1.493-.4l.746-.2c.245-.077.489-.172.733-.244l.733-.245.365-.124c.124-.041.245-.081.364-.132l1.43-.582c.242-.091.472-.209.7-.319l.686-.343.343-.172a3.579,3.579,0,0,0,.343-.172l.69-.366.671-.381c.22-.132.433-.28.649-.419a23.735,23.735,0,0,0,4.7-3.961,21.678,21.678,0,0,0,3.466-5.071c.235-.455.431-.93.635-1.4l.276-.719c.088-.24.172-.486.249-.728a15.984,15.984,0,0,0,.686-2.988v-.081l.074-.022,1.653-.515.827-.256.832-.235c.556-.154,1.109-.319,1.666-.467l1.678-.426a68.684,68.684,0,0,1,6.8-1.316,44.152,44.152,0,0,1,6.916-.434,32.466,32.466,0,0,1,3.461.249,29.582,29.582,0,0,1,3.412.645,28.886,28.886,0,0,1,3.31,1.05c1.083.41,2.142.879,3.192,1.351a34.255,34.255,0,0,0,3.18,1.306c.269.1.544.172.817.245.136.041.276.063.414.1a3.812,3.812,0,0,0,.417.084c.553.1,1.133.124,1.7.172a44.9,44.9,0,0,0,6.878-.069c2.289-.187,4.568-.515,6.83-.916s4.51-.908,6.741-1.467l1.672-.432,1.665-.455,1.66-.475.827-.245.414-.122.427-.117a6.29,6.29,0,0,1,1.769-.2,3.383,3.383,0,0,1,1.737.53l.1.063c.031.022.06.048.091.072.058.05.122.1.172.148a3.469,3.469,0,0,1,.314.343,3.767,3.767,0,0,1,.266.372l.112.2a1.853,1.853,0,0,1,.1.2,6.05,6.05,0,0,1,.484,1.716,14.056,14.056,0,0,1-.026,3.5c-.07.578-.154,1.148-.271,1.725-.033.142-.057.288-.1.431l-.118.426c-.093.28-.184.56-.3.831a13.624,13.624,0,0,1-1.749,3.032,23.051,23.051,0,0,1-2.308,2.612,52.087,52.087,0,0,1-5.32,4.45c-3.7,2.746-7.328,5.583-10.932,8.454l.019-.333a8.4,8.4,0,0,1,1.845,2.77,9.693,9.693,0,0,1,.686,3.261,14.216,14.216,0,0,1-.3,3.293,19.875,19.875,0,0,1-.932,3.159,26,26,0,0,1-1.373,2.993c-.259.484-.529.959-.824,1.428a8.406,8.406,0,0,1-.5.676c-.172.213-.343.426-.525.633a46.843,46.843,0,0,1-4.647,4.618,64.768,64.768,0,0,1-5.148,4.041c-.438.326-.9.623-1.344.934l-.674.462-.686.445a27.477,27.477,0,0,1-2.886,1.575,22.156,22.156,0,0,1-6.284,1.9,18.7,18.7,0,0,1-3.295.172,16.054,16.054,0,0,1-1.646-.154,10.527,10.527,0,0,1-1.632-.369l.3-.213a26.02,26.02,0,0,1-1.454,8.869,22.97,22.97,0,0,1-4.633,7.69,38.864,38.864,0,0,1-3.216,3.146c-.558.5-1.122.987-1.658,1.495a10.2,10.2,0,0,1-.844.765,8,8,0,0,1-.958.635,11.531,11.531,0,0,1-2.087.91,18.374,18.374,0,0,1-2.191.573c-.738.148-1.483.257-2.231.343a21.869,21.869,0,0,1-2.257.141L850,870.4c-.973,1.2-1.982,2.354-3.015,3.5s-2.092,2.255-3.178,3.343c-.546.542-1.095,1.081-1.654,1.608-.278.268-.561.529-.846.788l-.426.39c-.146.127-.305.249-.458.374a10.571,10.571,0,0,1-2.035,1.164c-.172.077-.36.148-.541.221l-.269.108-.275.1-.549.19-.556.172a34.964,34.964,0,0,1-4.52.985c-1.522.242-3.053.414-4.587.537s-3.068.209-4.606.254-3.072.06-4.615.026l.093-.022a14.533,14.533,0,0,1-4.472,1.424,22.131,22.131,0,0,1-2.329.254c-.779.05-1.56.062-2.341.046a40.231,40.231,0,0,1-4.656-.366,43.619,43.619,0,0,1-4.592-.858l-.261-.065.189-.2a4.318,4.318,0,0,0,.638-.987c.184-.36.343-.733.5-1.11.306-.753.575-1.526.825-2.3.5-1.557.925-3.137,1.311-4.728.769-3.183,1.373-6.406,1.855-9.648s.827-6.5,1.03-9.772a97.7,97.7,0,0,0,.144-9.823c-.063-1.637-.172-3.273-.343-4.9s-.39-3.261-.678-4.867c-.153-.8-.3-1.611-.446-2.42-.079-.4-.13-.81-.192-1.215l-.091-.609c-.031-.2-.062-.407-.082-.611l-.141-1.222c-.048-.408-.07-.819-.106-1.227l-.05-.614-.029-.614-.027-.616c-.01-.2-.019-.41-.019-.614a35.928,35.928,0,0,1,.215-4.918,28.2,28.2,0,0,1,.959-4.826,21.875,21.875,0,0,1,1.9-4.531,16.828,16.828,0,0,1,1.373-2.044,12.137,12.137,0,0,1,.8-.93A8.16,8.16,0,0,1,809.749,808.352Z" transform="translate(-662.139 -650.126)" fill="#724451"/>
            <path id="Path_1894" data-name="Path 1894" d="M945.564,1178.157a43.418,43.418,0,0,0,4.893-22.332c-.027-.535-.858-.539-.836,0a42.594,42.594,0,0,1-4.779,21.91C944.593,1178.212,945.314,1178.634,945.564,1178.157Z" transform="translate(-782.654 -957.139)" fill="#724451"/>
            <path id="Path_1895" data-name="Path 1895" d="M1109.2,1190.146a16.612,16.612,0,0,0,5.783-12.157.419.419,0,0,0-.838,0,15.788,15.788,0,0,1-5.536,11.565C1108.2,1189.9,1108.792,1190.495,1109.2,1190.146Z" transform="translate(-918.244 -975.498)" fill="#724451"/>
            <path id="Path_1896" data-name="Path 1896" d="M1334.234,974.713a14.048,14.048,0,0,0-8.126-7.8c-.515-.187-.726.621-.223.807a13.133,13.133,0,0,1,7.551,7.208c.2.491,1.013.275.807-.221Z" transform="translate(-1098.11 -800.959)" fill="#724451"/>
            <path id="Path_1897" data-name="Path 1897" d="M1257.209,904.858a32.891,32.891,0,0,0-19.852-10.117,31.42,31.42,0,0,0-6.562-.142c-.532.045-.537.88,0,.838a32,32,0,0,1,25.822,10.014c.367.395.958-.2.592-.592Z" transform="translate(-1019.244 -740.986)" fill="#724451"/>
            <path id="Path_1898" data-name="Path 1898" d="M1196.843,1054.938a36.046,36.046,0,0,0-3.5-16.955c-.232-.486-.954-.062-.722.422a35.181,35.181,0,0,1,3.386,16.533C1195.985,1055.476,1196.823,1055.476,1196.843,1054.938Z" transform="translate(-987.917 -859.676)" fill="#724451"/>
            <path id="Path_1899" data-name="Path 1899" d="M898.161,1142.555a41.531,41.531,0,0,0,1.239-11.132c-.014-.537-.858-.539-.837,0a40.5,40.5,0,0,1-1.2,10.911c-.13.515.676.745.808.221Z" transform="translate(-743.352 -936.923)" fill="#724451"/>
            <path id="Path_1900" data-name="Path 1900" d="M852.525,967.519A77.24,77.24,0,0,1,851.4,987.63c-.1.527.707.752.807.223a78.053,78.053,0,0,0,1.155-20.334C853.321,966.985,852.484,966.98,852.525,967.519Z" transform="translate(-705.282 -801.148)" fill="#fff"/>
            <path id="Path_1901" data-name="Path 1901" d="M989.1,1109.677a58.608,58.608,0,0,0,8.793-27.484,57.4,57.4,0,0,0-.1-8.328c-.045-.532-.882-.537-.836,0a57.317,57.317,0,0,1-8.581,35.39c-.287.457.438.877.723.422Z" transform="translate(-818.702 -889.245)" fill="#fff"/>
            <path id="Path_1902" data-name="Path 1902" d="M1053.719,1200.951l1.63-7.208c.119-.515-.686-.748-.807-.221q-.817,3.6-1.63,7.208c-.118.525.687.748.807.223Z" transform="translate(-872.211 -988.453)" fill="#fff"/>
            <path id="Path_1903" data-name="Path 1903" d="M1190.505,951.474a14.413,14.413,0,0,1,8.8,7.136c2.265,3.964,2.89,8.558,2.864,13.063-.015,2.82-.271,5.63-.532,8.435-.05.535.788.532.838,0,.838-9.032,1.466-19.706-5.982-26.346a13.583,13.583,0,0,0-5.763-3.089c-.515-.129-.745.678-.223.807Z" transform="translate(-985.957 -787.516)" fill="#fff"/>
            <path id="Path_1904" data-name="Path 1904" d="M1287.82,1040.5v7.985a.419.419,0,0,0,.838,0v-7.99a.419.419,0,0,0-.838,0Z" transform="translate(-1066.816 -861.598)" fill="#fff"/>
            <g id="Group_770" data-name="Group 770" transform="translate(81.912 51.101)" clip-path="url(#clip-path-4)">
              <g id="Group_769" data-name="Group 769" transform="translate(-3.419 -19.027)" opacity="0.42">
                <path id="Path_1905" data-name="Path 1905" d="M460.293,380.854c11.953.374,23.938.741,35.879-.122a125.473,125.473,0,0,0,33.758-6.849A143.537,143.537,0,0,0,559.1,359.125,224.358,224.358,0,0,0,585.8,338.435c8.74-7.776,17.041-16.025,25.287-24.317q1.508-1.515,3.013-3.036a1.184,1.184,0,0,0-1.673-1.673c-8.14,8.2-16.284,16.4-24.808,24.2a238.533,238.533,0,0,1-26.38,21.252,147.315,147.315,0,0,1-28.213,15.327,119.115,119.115,0,0,1-32.778,7.839c-11.815,1.15-23.71.949-35.56.6l-4.39-.136c-1.524-.048-1.522,2.32,0,2.367Z" transform="translate(-458.85 -288.095)" fill="#fff"/>
                <path id="Path_1906" data-name="Path 1906" d="M458.52,507.447c12.459,1,24.933,1.989,37.439,2.059a168.362,168.362,0,0,0,37.029-3.47,141.727,141.727,0,0,0,31.719-11.326,229.9,229.9,0,0,0,28.934-17.18c9.289-6.368,18.251-13.2,27.159-20.079l3.376-2.614a1.185,1.185,0,0,0,0-1.673,1.211,1.211,0,0,0-1.673,0c-8.845,6.849-17.714,13.684-26.878,20.114a251.165,251.165,0,0,1-28.316,17.475,145.74,145.74,0,0,1-30.827,12.013,153.961,153.961,0,0,1-36.251,4.349c-12.4.156-24.782-.7-37.133-1.675l-4.577-.36C457,504.959,457.01,507.325,458.52,507.447Z" transform="translate(-457.385 -407.192)" fill="#fff"/>
                <path id="Path_1907" data-name="Path 1907" d="M608.414,659.578a140.568,140.568,0,0,0,25.009.232,148,148,0,0,0,24.655-4.088,150.249,150.249,0,0,0,23.72-8.208,146.4,146.4,0,0,0,21.838-11.949,141.936,141.936,0,0,0,19.488-15.55q1.145-1.1,2.265-2.216a1.185,1.185,0,0,0-1.673-1.675,138.08,138.08,0,0,1-18.841,15.744,146.7,146.7,0,0,1-68.744,25.325,140.656,140.656,0,0,1-24.667.283q-1.526-.118-3.049-.271a1.191,1.191,0,0,0-1.184,1.184,1.213,1.213,0,0,0,1.184,1.182Z" transform="translate(-581.515 -542.179)" fill="#fff"/>
                <path id="Path_1908" data-name="Path 1908" d="M757.094,649.638a159.511,159.511,0,0,0,43.375-5.3A162.221,162.221,0,0,0,840.6,627.719a157.8,157.8,0,0,0,20.25-14.034,1.192,1.192,0,0,0,0-1.673,1.21,1.21,0,0,0-1.675,0,156.776,156.776,0,0,1-36.713,22.227,160.083,160.083,0,0,1-41.358,11.589,154.679,154.679,0,0,1-24,1.443,1.184,1.184,0,0,0,0,2.366Z" transform="translate(-704.721 -538.778)" fill="#fff"/>
                <path id="Path_1909" data-name="Path 1909" d="M675.3,272.2a234.358,234.358,0,0,0,29.346-8.913A158.39,158.39,0,0,0,731.462,250,165.09,165.09,0,0,0,754.4,232.758a75.688,75.688,0,0,0,15.025-17.865,69.923,69.923,0,0,0,8.129-23.059q.306-1.716.551-3.443a1.223,1.223,0,0,0-.827-1.455,1.187,1.187,0,0,0-1.455.827,72.9,72.9,0,0,1-7.118,23.543,68.778,68.778,0,0,1-13.866,17.829,155.3,155.3,0,0,1-21.664,16.959,152.684,152.684,0,0,1-26.157,13.719,215.173,215.173,0,0,1-28.506,9.157q-1.912.486-3.83.946c-1.481.357-.858,2.639.628,2.282Z" transform="translate(-636.691 -186.9)" fill="#fff"/>
                <path id="Path_1910" data-name="Path 1910" d="M801.342,731.4a63.247,63.247,0,0,0,27.973-5.248A65.915,65.915,0,0,0,852.352,709.6a60.767,60.767,0,0,0,9-13.214c.686-1.359-1.363-2.559-2.044-1.2a60.276,60.276,0,0,1-17.491,20.937,64.43,64.43,0,0,1-25.014,11.6,58.809,58.809,0,0,1-15.462,1.3c-1.522-.074-1.519,2.293,0,2.367Z" transform="translate(-741.373 -607.459)" fill="#fff"/>
                <path id="Path_1911" data-name="Path 1911" d="M1009.852,245.117c7.146-1.016,13.456-5.255,18.06-10.683,5.179-6.108,8.184-13.624,10.142-21.316,1.182-4.649,2.013-9.377,2.835-14.1a1.222,1.222,0,0,0-.825-1.457,1.193,1.193,0,0,0-1.455.827c-2.554,14.644-5.684,31.42-18.943,40.348a24.944,24.944,0,0,1-10.443,4.1,1.192,1.192,0,0,0-.827,1.455A1.209,1.209,0,0,0,1009.852,245.117Z" transform="translate(-913.807 -195.701)" fill="#fff"/>
              </g>
            </g>
            <path id="Path_1913" data-name="Path 1913" d="M1191.6,324.13l11.984,4.186-3.233,5.136Z" transform="translate(-987.108 -268.506)" fill="#63391d" opacity="0.51"/>
            <path id="Path_1914" data-name="Path 1914" d="M770.47,594.9s36.644,41.557,26.663-11.119Z" transform="translate(-638.249 -483.597)" fill="#010101"/>
            <path id="Path_1915" data-name="Path 1915" d="M758.538,503.678c1.913-3.688,1.857-12.492-1.129-13.487-2.03-.676-2.482,2.027-2.555,3.914a17.223,17.223,0,0,0-3.026-3.911c-4.565-4.819-26.888-6.6-24.35,14.206,0,0,.093.249.269.686-1.241-1.061-2.746-1.838-3.6-.371-1.6,2.778,4.462,9.61,8.328,10.921a1.315,1.315,0,0,0,.889.072,24.079,24.079,0,0,0,6.8,6.95c9.14,5.579,17.619,4.33,19.279-5.073A30.873,30.873,0,0,0,758.538,503.678Z" transform="translate(-599.654 -403.495)" fill="#efa583"/>
            <path id="Path_1916" data-name="Path 1916" d="M776.089,596.687a1.748,1.748,0,1,1-.269,2.265A1.621,1.621,0,0,1,776.089,596.687Z" transform="translate(-642.404 -494.103)"/>
            <path id="Path_1917" data-name="Path 1917" d="M863.738,553.637a1.743,1.743,0,1,1-.789,2.162A1.634,1.634,0,0,1,863.738,553.637Z" transform="translate(-714.747 -458.551)"/>
            <path id="Path_1918" data-name="Path 1918" d="M761.856,574.021c-2.533.47-5.27,1.363-6.5,3.829-.172.343.343.642.515.3,1.162-2.33,3.763-3.115,6.147-3.557.376-.07.216-.642-.158-.572Z" transform="translate(-625.698 -475.508)"/>
            <path id="Path_1919" data-name="Path 1919" d="M844.889,536.12c1.507-1.673,3.557-3.679,6.018-3.278.374.062.534-.515.158-.571-2.708-.443-4.915,1.565-6.6,3.432-.254.283.163.7.42.419Z" transform="translate(-699.483 -440.875)"/>
            <path id="Path_1920" data-name="Path 1920" d="M833.576,617.617a2.836,2.836,0,0,1,1.019-.055,7.235,7.235,0,0,1,.812.319,3.413,3.413,0,0,0,1.157.218,1.98,1.98,0,0,0,1.524-.705c.764-.9.432-2.207,1.575-2.835.335-.184.034-.7-.3-.515a2.347,2.347,0,0,0-1.153,1.438,4.571,4.571,0,0,1-.374,1.232,1.483,1.483,0,0,1-1.584.767,9.264,9.264,0,0,1-1.407-.47,3.223,3.223,0,0,0-1.426.031c-.374.062-.216.633.158.571Z" transform="translate(-690.217 -508.636)"/>
            <circle id="Ellipse_133" data-name="Ellipse 133" cx="2.028" cy="2.028" r="2.028" transform="translate(128.951 109.678) rotate(-4.42)"/>
            <circle id="Ellipse_134" data-name="Ellipse 134" cx="2.034" cy="2.034" r="2.034" transform="matrix(0.16, -0.987, 0.987, 0.16, 157.793, 99.565)"/>
            <path id="Path_1921" data-name="Path 1921" d="M771.3,596.646s-1.4-.983-3.551,1.109c-.064.127,1.363.223,1.363.223Z" transform="translate(-635.994 -494.063)"/>
            <path id="Path_1922" data-name="Path 1922" d="M863.16,552.143s.367-1.666,3.37-1.572c.132.05-.858,1.081-.858,1.081Z" transform="translate(-715.032 -456.084)" fill="#010101"/>
            <path id="Path_1923" data-name="Path 1923" d="M734.163,595.154s-2.231-2.166-2.656-1.06c-.484,1.246,1.241,4.04,3.775,5.941l1.248.484Z" transform="translate(-605.905 -491.88)" fill="#63391d" opacity="0.51"/>
            <path id="Path_1924" data-name="Path 1924" d="M911.2,517.226s.331-3.089,1.373-2.512c1.169.65,1.623,3.9.887,6.981l-.65,1.169Z" transform="translate(-754.828 -426.324)" fill="#63391d" opacity="0.51"/>
            <path id="Path_1925" data-name="Path 1925" d="M54.149,696.842a10.641,10.641,0,0,1,7.52-.163c.216.076.311-.268.094-.343a10.942,10.942,0,0,0-7.709.163c-.211.084-.118.429.094.343Z" transform="translate(-44.679 -576.321)" fill="#3a200e" opacity="0.47"/>
            <path id="Path_1926" data-name="Path 1926" d="M53.921,704.746a13.5,13.5,0,0,1,5.646-.391c.225.033.321-.311.1-.343a13.884,13.884,0,0,0-5.835.39.178.178,0,0,0,.094.343Z" transform="translate(-44.483 -583.074)" fill="#3a200e" opacity="0.47"/>
            <path id="Path_1927" data-name="Path 1927" d="M56.688,687.36a13.321,13.321,0,0,1,6.2-1.067c.228.015.228-.343,0-.355a13.68,13.68,0,0,0-6.379,1.115c-.209.089-.029.4.172.307Z" transform="translate(-46.734 -568.198)" fill="#3a200e" opacity="0.47"/>
            <path id="Path_1928" data-name="Path 1928" d="M850.389,653.255c.8.266,1.248-.47,1.6-1.062a1.756,1.756,0,0,1,1.2-1.03,2.538,2.538,0,0,0,1.244-.357c.384-.288.58-.659,1.1-.714.4-.041.8-.031,1.2-.058.558-.038,1.381-.058,1.687-.623.256-.474-.467-.9-.722-.422-.182.343-1.417.23-1.749.245a2.238,2.238,0,0,0-1.716.6,1.167,1.167,0,0,1-.755.475c-.172.026-.335.015-.5.051a2.292,2.292,0,0,0-1.03.482c-.309.266-.961,1.733-1.335,1.608-.515-.172-.731.637-.223.807Z" transform="translate(-704.209 -537.443)"/>
            <path id="Path_1929" data-name="Path 1929" d="M864.334,663.74a4.152,4.152,0,0,0,4.687-2.463c.233-.482-.487-.908-.722-.422a3.325,3.325,0,0,1-3.743,2.078C864.029,662.854,863.8,663.661,864.334,663.74Z" transform="translate(-715.753 -547.267)"/>
            <path id="Path_1930" data-name="Path 1930" d="M860.14,824.465v-1.943s31.494,7.693,39.232-18.263l.844.422S898.569,829.477,860.14,824.465Z" transform="translate(-712.53 -666.24)" fill="#724451"/>
            <path id="Path_1931" data-name="Path 1931" d="M1359.208,822.513a21.323,21.323,0,0,0,19.62-10.7c.262-.47-.46-.892-.723-.422a20.493,20.493,0,0,1-18.9,10.286C1358.671,821.642,1358.673,822.479,1359.208,822.513Z" transform="translate(-1125.62 -671.976)" fill="#fff"/>
            <path id="Path_1932" data-name="Path 1932" d="M456.755,736.844l-4.565.508.57-11.922,4,.379Z" transform="translate(-374.589 -600.938)" fill="#63391d" opacity="0.51"/>
            <path id="Path_1933" data-name="Path 1933" d="M1713.685,318.428l-10.1-17.475a101.881,101.881,0,0,0,28.263-14.223l8.268,14.3A101.909,101.909,0,0,1,1713.685,318.428Z" transform="translate(-1411.226 -237.524)" fill="#f9a065"/>
            <path id="Path_1934" data-name="Path 1934" d="M1719.276,325.456l-9.1-15.73a98.711,98.711,0,0,0,26.8-12.656l7.7,12.722a98.494,98.494,0,0,1-25.4,15.665Z" transform="translate(-1416.694 -246.089)" fill="#df9a27"/>
            <path id="Path_1935" data-name="Path 1935" d="M1736.527,372.481q-2.562,1.246-5.191,2.346-1.78-3.068-3.556-6.157,2.688-1,5.31-2.14Q1734.808,369.511,1736.527,372.481Z" transform="translate(-1431.274 -303.629)" fill="#ff6803"/>
            <path id="Path_1936" data-name="Path 1936" d="M1810.213,339.8a101.509,101.509,0,0,1-13.87,8.872c-.07-.124-.142-.245-.213-.367a101.481,101.481,0,0,0,13.892-8.835Z" transform="translate(-1487.894 -281.213)" fill="#a94236"/>
            <path id="Path_1937" data-name="Path 1937" d="M1816.236,349.328a101.5,101.5,0,0,1-13.765,9.056l-.211-.367A101.461,101.461,0,0,0,1816.046,349Z" transform="translate(-1492.972 -289.108)" fill="#a94236"/>
            <path id="Path_1938" data-name="Path 1938" d="M1822.25,358.839a101.845,101.845,0,0,1-13.657,9.241l-.213-.367a101.713,101.713,0,0,0,13.679-9.2Z" transform="translate(-1498.042 -296.986)" fill="#a94236"/>
            <path id="Path_1939" data-name="Path 1939" d="M1828.24,368.343a102.226,102.226,0,0,1-13.557,9.425l-.213-.367a101.889,101.889,0,0,0,13.58-9.4Z" transform="translate(-1503.087 -304.847)" fill="#a94236"/>
            <path id="Path_1940" data-name="Path 1940" d="M347.9,868.9l-3.343,19.535L375.7,900.212l5.8-26.408Z" transform="translate(-285.43 -719.787)" fill="#df9a27"/>
            <path id="Path_1941" data-name="Path 1941" d="M344.56,943.406l9.89-8.146,12.262,1.768,8.8,18.5Z" transform="translate(-285.43 -774.759)" fill="#f9a065"/>
            <path id="Path_1942" data-name="Path 1942" d="M364.04,868.9l3.5,11.774,16.919,3.938L397.636,873.8Z" transform="translate(-301.567 -719.787)" fill="#ff6803"/>
            <path id="Path_1943" data-name="Path 1943" d="M1671.33,1274.219l.352-11.419,18.567,2.883S1679.485,1274.6,1671.33,1274.219Z" transform="translate(-1384.511 -1046.089)" fill="#ce9972"/>
            <path id="Path_1944" data-name="Path 1944" d="M1620.88,1235.668s26.857,2.516,36.627-12.946l-15.169-8.321S1635,1233.094,1620.88,1235.668Z" transform="translate(-1342.719 -1005.995)" fill="#f1d69e"/>
            <path id="Path_1945" data-name="Path 1945" d="M16.708,296.4,0,314.62l13.695.58a22.531,22.531,0,0,0,21.542-13.341l2.437-5.469Z" transform="translate(0 -245.526)" fill="#f1d69e"/>
          </g>
        </g>
      </g>
      <rect id="Rectangle_155" data-name="Rectangle 155" width="434" height="156" transform="translate(4155 1284)" fill="#fff"/>
    </g>
  </g>
</svg>
