<svg xmlns="http://www.w3.org/2000/svg" width="50" height="50" viewBox="0 0 50 50">
  <g id="Group_764" data-name="Group 764" transform="translate(-3555 -1634)">
    <g id="Ellipse_130" data-name="Ellipse 130" transform="translate(3555 1634)" fill="none" stroke="#fff" stroke-width="2">
      <circle cx="25" cy="25" r="25" stroke="none"/>
      <circle cx="25" cy="25" r="24" fill="none"/>
    </g>
    <path id="Icon_feather-phone-call" data-name="Icon feather-phone-call" d="M18.033,6.1a5.745,5.745,0,0,1,4.538,4.538M18.033,1.5a10.341,10.341,0,0,1,9.134,9.123m-1.149,9.169v3.447a2.3,2.3,0,0,1-2.5,2.3A22.738,22.738,0,0,1,13.6,22.009,22.4,22.4,0,0,1,6.7,15.115,22.738,22.738,0,0,1,3.177,5.154a2.3,2.3,0,0,1,2.286-2.5H8.911a2.3,2.3,0,0,1,2.3,1.976,14.753,14.753,0,0,0,.8,3.229,2.3,2.3,0,0,1-.517,2.424l-1.459,1.459a18.384,18.384,0,0,0,6.894,6.894l1.459-1.459a2.3,2.3,0,0,1,2.424-.517,14.753,14.753,0,0,0,3.229.8A2.3,2.3,0,0,1,26.019,19.792Z" transform="translate(3563.332 1645.977)" fill="none" stroke="#fff" stroke-linecap="round" stroke-linejoin="round" stroke-width="2"/>
  </g>
</svg>
