<svg xmlns="http://www.w3.org/2000/svg" width="1944" height="451" viewBox="0 0 1944 451">
  <defs>
    <style>
      .cls-1 {
        fill: #c72929;
        font-size: 17px;
      }

      .cls-1, .cls-2, .cls-7, .cls-8, .cls-9 {
        font-family: SegoeUI, Segoe UI;
      }

      .cls-10, .cls-12, .cls-2 {
        fill: #ff6803;
      }

      .cls-2 {
        font-size: 28px;
      }

      .cls-3 {
        fill: #000;
      }

      .cls-11, .cls-4 {
        font-family: SegoeUI-Bold, Segoe UI;
        font-weight: 700;
      }

      .cls-5, .cls-6 {
        fill: #fff;
      }

      .cls-12, .cls-5 {
        stroke: #ff6803;
      }

      .cls-6 {
        stroke: #000;
      }

      .cls-7 {
        font-size: 20px;
      }

      .cls-8 {
        font-size: 38px;
      }

      .cls-11, .cls-9 {
        font-size: 18px;
      }

      .cls-13 {
        stroke: none;
      }

      .cls-14 {
        fill: none;
      }
    </style>
  </defs>
  <g id="Group_701" data-name="Group 701" transform="translate(12 -719)">
    <text id="_1" data-name="1" class="cls-1" transform="translate(532 756)"><tspan x="0" y="0">1</tspan></text>
    <g id="Group_2" data-name="Group 2" transform="translate(42 246)">
      <text id="Fastest_Journey_to_Your_Business_Goal" data-name="Fastest Journey to
Your Business Goal" class="cls-2" transform="translate(776 503)"><tspan class="cls-3"><tspan x="-110.797" y="0">Fastest Journey to</tspan></tspan><tspan class="cls-4"><tspan x="-123.396" y="34">Your Business Goal</tspan></tspan></text>
      <g id="Ellipse_1" data-name="Ellipse 1" class="cls-5" transform="translate(397 532)">
        <circle class="cls-13" cx="97.5" cy="97.5" r="97.5"/>
        <circle class="cls-14" cx="97.5" cy="97.5" r="97"/>
      </g>
      <g id="Ellipse_2" data-name="Ellipse 2" class="cls-5" transform="translate(621 594)">
        <circle class="cls-13" cx="165" cy="165" r="165"/>
        <circle class="cls-14" cx="165" cy="165" r="164.5"/>
      </g>
      <g id="Ellipse_3" data-name="Ellipse 3" class="cls-5" transform="translate(978 562)">
        <circle class="cls-13" cx="81.5" cy="81.5" r="81.5"/>
        <circle class="cls-14" cx="81.5" cy="81.5" r="81"/>
      </g>
      <g id="Ellipse_4" data-name="Ellipse 4" class="cls-6" transform="translate(1186 650)">
        <circle class="cls-13" cx="72.5" cy="72.5" r="72.5"/>
        <circle class="cls-14" cx="72.5" cy="72.5" r="72"/>
      </g>
      <g id="Ellipse_5" data-name="Ellipse 5" class="cls-6" transform="translate(1313 480)">
        <circle class="cls-13" cx="105.5" cy="105.5" r="105.5"/>
        <circle class="cls-14" cx="105.5" cy="105.5" r="105"/>
      </g>
      <text id="Copywriting" class="cls-7" transform="translate(441 638)"><tspan x="0" y="0">Copywriting</tspan></text>
      <text id="UI_UX" data-name="UI &amp; UX" class="cls-8" transform="translate(718 775)"><tspan x="0" y="0">UI &amp; UX</tspan></text>
      <text id="Development" class="cls-9" transform="translate(1006 651)"><tspan x="0" y="0">Development</tspan></text>
      <text id="Marketing" class="cls-9" transform="translate(1218 729)"><tspan x="0" y="0">Marketing</tspan></text>
      <path id="Polygon_2" data-name="Polygon 2" class="cls-10" d="M6,0l6,9H0Z" transform="translate(1066 559) rotate(180)"/>
      <path id="Polygon_3" data-name="Polygon 3" class="cls-10" d="M6,0l6,9H0Z" transform="translate(792 589) rotate(180)"/>
      <path id="Polygon_4" data-name="Polygon 4" class="cls-10" d="M6,0l6,9H0Z" transform="translate(501 529) rotate(180)"/>
      <text id="_2" data-name="2" class="cls-1" transform="translate(781 573)"><tspan x="0" y="0">2</tspan></text>
      <text id="_3" data-name="3" class="cls-1" transform="translate(1055 544)"><tspan x="0" y="0">3</tspan></text>
      <text id="Conversion" class="cls-11" transform="translate(1371 593)"><tspan x="0" y="0">Conversion</tspan></text>
    </g>
    <g id="Ellipse_6" data-name="Ellipse 6" class="cls-12" transform="translate(465 1009)">
      <circle class="cls-13" cx="7" cy="7" r="7"/>
      <circle class="cls-14" cx="7" cy="7" r="6.5"/>
    </g>
    <g id="Ellipse_7" data-name="Ellipse 7" class="cls-12" transform="translate(336 899)">
      <circle class="cls-13" cx="8" cy="8" r="8"/>
      <circle class="cls-14" cx="8" cy="8" r="7.5"/>
    </g>
    <g id="Ellipse_8" data-name="Ellipse 8" class="cls-12" transform="translate(256 941)">
      <circle class="cls-13" cx="4.5" cy="4.5" r="4.5"/>
      <circle class="cls-14" cx="4.5" cy="4.5" r="4"/>
    </g>
    <g id="Ellipse_9" data-name="Ellipse 9" class="cls-12" transform="translate(584 991)">
      <circle class="cls-13" cx="4" cy="4" r="4"/>
      <circle class="cls-14" cx="4" cy="4" r="3.5"/>
    </g>
    <g id="Ellipse_10" data-name="Ellipse 10" class="cls-12" transform="translate(686 847)">
      <circle class="cls-13" cx="3" cy="3" r="3"/>
      <circle class="cls-14" cx="3" cy="3" r="2.5"/>
    </g>
    <g id="Ellipse_11" data-name="Ellipse 11" class="cls-12" transform="translate(967 847)">
      <circle class="cls-13" cx="8" cy="8" r="8"/>
      <circle class="cls-14" cx="8" cy="8" r="7.5"/>
    </g>
    <g id="Ellipse_12" data-name="Ellipse 12" class="cls-12" transform="translate(1070 1016)">
      <circle class="cls-13" cx="8.5" cy="8.5" r="8.5"/>
      <circle class="cls-14" cx="8.5" cy="8.5" r="8"/>
    </g>
    <g id="Ellipse_13" data-name="Ellipse 13" class="cls-12" transform="translate(1130 999)">
      <circle class="cls-13" cx="5" cy="5" r="5"/>
      <circle class="cls-14" cx="5" cy="5" r="4.5"/>
    </g>
    <g id="Ellipse_14" data-name="Ellipse 14" class="cls-12" transform="translate(1205 815)">
      <circle class="cls-13" cx="19.5" cy="19.5" r="19.5"/>
      <circle class="cls-14" cx="19.5" cy="19.5" r="19"/>
    </g>
    <g id="Ellipse_15" data-name="Ellipse 15" class="cls-12" transform="translate(1308 871)">
      <circle class="cls-13" cx="4.5" cy="4.5" r="4.5"/>
      <circle class="cls-14" cx="4.5" cy="4.5" r="4"/>
    </g>
    <g id="Ellipse_16" data-name="Ellipse 16" class="cls-12" transform="translate(1420 964)">
      <circle class="cls-13" cx="6" cy="6" r="6"/>
      <circle class="cls-14" cx="6" cy="6" r="5.5"/>
    </g>
    <g id="Ellipse_17" data-name="Ellipse 17" class="cls-12" transform="translate(1474 1018)">
      <circle class="cls-13" cx="4" cy="4" r="4"/>
      <circle class="cls-14" cx="4" cy="4" r="3.5"/>
    </g>
    <g id="Ellipse_18" data-name="Ellipse 18" class="cls-12" transform="translate(1525 988)">
      <circle class="cls-13" cx="1.5" cy="1.5" r="1.5"/>
      <circle class="cls-14" cx="1.5" cy="1.5" r="1"/>
    </g>
    <g id="Ellipse_19" data-name="Ellipse 19" class="cls-12" transform="translate(1670 835)">
      <circle class="cls-13" cx="10.5" cy="10.5" r="10.5"/>
      <circle class="cls-14" cx="10.5" cy="10.5" r="10"/>
    </g>
    <g id="Ellipse_20" data-name="Ellipse 20" class="cls-12" transform="translate(1693 901)">
      <circle class="cls-13" cx="6" cy="6" r="6"/>
      <circle class="cls-14" cx="6" cy="6" r="5.5"/>
    </g>
    <g id="Ellipse_21" data-name="Ellipse 21" class="cls-12" transform="translate(1602 918)">
      <circle class="cls-13" cx="2.5" cy="2.5" r="2.5"/>
      <circle class="cls-14" cx="2.5" cy="2.5" r="2"/>
    </g>
    <g id="Ellipse_22" data-name="Ellipse 22" class="cls-12" transform="translate(1699 964)">
      <circle class="cls-13" cx="4" cy="4" r="4"/>
      <circle class="cls-14" cx="4" cy="4" r="3.5"/>
    </g>
    <g id="Ellipse_23" data-name="Ellipse 23" class="cls-12" transform="translate(1757 930)">
      <circle class="cls-13" cx="3.5" cy="3.5" r="3.5"/>
      <circle class="cls-14" cx="3.5" cy="3.5" r="3"/>
    </g>
    <g id="Ellipse_24" data-name="Ellipse 24" class="cls-12" transform="translate(1832 800)">
      <circle class="cls-13" cx="7" cy="7" r="7"/>
      <circle class="cls-14" cx="7" cy="7" r="6.5"/>
    </g>
    <g id="Ellipse_25" data-name="Ellipse 25" class="cls-12" transform="translate(1885 939)">
      <circle class="cls-13" cx="5.5" cy="5.5" r="5.5"/>
      <circle class="cls-14" cx="5.5" cy="5.5" r="5"/>
    </g>
    <g id="Ellipse_26" data-name="Ellipse 26" class="cls-12" transform="translate(1890 1007)">
      <circle class="cls-13" cx="3.5" cy="3.5" r="3.5"/>
      <circle class="cls-14" cx="3.5" cy="3.5" r="3"/>
    </g>
    <g id="Ellipse_28" data-name="Ellipse 28" class="cls-12" transform="translate(207 991)">
      <circle class="cls-13" cx="7" cy="7" r="7"/>
      <circle class="cls-14" cx="7" cy="7" r="6.5"/>
    </g>
    <g id="Ellipse_29" data-name="Ellipse 29" class="cls-12" transform="translate(66 896)">
      <circle class="cls-13" cx="8.5" cy="8.5" r="8.5"/>
      <circle class="cls-14" cx="8.5" cy="8.5" r="8"/>
    </g>
    <g id="Ellipse_31" data-name="Ellipse 31" class="cls-12" transform="translate(75 1023)">
      <circle class="cls-13" cx="3.5" cy="3.5" r="3.5"/>
      <circle class="cls-14" cx="3.5" cy="3.5" r="3"/>
    </g>
    <g id="Ellipse_32" data-name="Ellipse 32" class="cls-12" transform="translate(246 1070)">
      <circle class="cls-13" cx="1.5" cy="1.5" r="1.5"/>
      <circle class="cls-14" cx="1.5" cy="1.5" r="1"/>
    </g>
    <g id="Ellipse_27" data-name="Ellipse 27" class="cls-12" transform="translate(1921 871)">
      <circle class="cls-13" cx="5.5" cy="5.5" r="5.5"/>
      <circle class="cls-14" cx="5.5" cy="5.5" r="5"/>
    </g>
    <g id="Ellipse_30" data-name="Ellipse 30" class="cls-12" transform="translate(-12 948)">
      <circle class="cls-13" cx="5" cy="5" r="5"/>
      <circle class="cls-14" cx="5" cy="5" r="4.5"/>
    </g>
  </g>
</svg>
