<svg xmlns="http://www.w3.org/2000/svg" width="1866" height="233" viewBox="0 0 1866 233">
  <defs>
    <style>
      .cls-1 {
        fill: #ff6803;
        stroke: #ff6803;
      }

      .cls-2 {
        stroke: none;
      }

      .cls-3 {
        fill: none;
      }
    </style>
  </defs>
  <g id="Group_833" data-name="Group 833" transform="translate(-66 -800)">
    <g id="Ellipse_6" data-name="Ellipse 6" class="cls-1" transform="translate(465 1009)">
      <circle class="cls-2" cx="7" cy="7" r="7"/>
      <circle class="cls-3" cx="7" cy="7" r="6.5"/>
    </g>
    <g id="Ellipse_7" data-name="Ellipse 7" class="cls-1" transform="translate(336 899)">
      <circle class="cls-2" cx="8" cy="8" r="8"/>
      <circle class="cls-3" cx="8" cy="8" r="7.5"/>
    </g>
    <g id="Ellipse_8" data-name="Ellipse 8" class="cls-1" transform="translate(256 941)">
      <circle class="cls-2" cx="4.5" cy="4.5" r="4.5"/>
      <circle class="cls-3" cx="4.5" cy="4.5" r="4"/>
    </g>
    <g id="Ellipse_9" data-name="Ellipse 9" class="cls-1" transform="translate(584 991)">
      <circle class="cls-2" cx="4" cy="4" r="4"/>
      <circle class="cls-3" cx="4" cy="4" r="3.5"/>
    </g>
    <g id="Ellipse_10" data-name="Ellipse 10" class="cls-1" transform="translate(686 847)">
      <circle class="cls-2" cx="3" cy="3" r="3"/>
      <circle class="cls-3" cx="3" cy="3" r="2.5"/>
    </g>
    <g id="Ellipse_11" data-name="Ellipse 11" class="cls-1" transform="translate(967 847)">
      <circle class="cls-2" cx="8" cy="8" r="8"/>
      <circle class="cls-3" cx="8" cy="8" r="7.5"/>
    </g>
    <g id="Ellipse_12" data-name="Ellipse 12" class="cls-1" transform="translate(1070 1016)">
      <circle class="cls-2" cx="8.5" cy="8.5" r="8.5"/>
      <circle class="cls-3" cx="8.5" cy="8.5" r="8"/>
    </g>
    <g id="Ellipse_13" data-name="Ellipse 13" class="cls-1" transform="translate(1130 999)">
      <circle class="cls-2" cx="5" cy="5" r="5"/>
      <circle class="cls-3" cx="5" cy="5" r="4.5"/>
    </g>
    <g id="Ellipse_14" data-name="Ellipse 14" class="cls-1" transform="translate(1205 815)">
      <circle class="cls-2" cx="19.5" cy="19.5" r="19.5"/>
      <circle class="cls-3" cx="19.5" cy="19.5" r="19"/>
    </g>
    <g id="Ellipse_15" data-name="Ellipse 15" class="cls-1" transform="translate(1308 871)">
      <circle class="cls-2" cx="4.5" cy="4.5" r="4.5"/>
      <circle class="cls-3" cx="4.5" cy="4.5" r="4"/>
    </g>
    <g id="Ellipse_16" data-name="Ellipse 16" class="cls-1" transform="translate(1420 964)">
      <circle class="cls-2" cx="6" cy="6" r="6"/>
      <circle class="cls-3" cx="6" cy="6" r="5.5"/>
    </g>
    <g id="Ellipse_17" data-name="Ellipse 17" class="cls-1" transform="translate(1474 1018)">
      <circle class="cls-2" cx="4" cy="4" r="4"/>
      <circle class="cls-3" cx="4" cy="4" r="3.5"/>
    </g>
    <g id="Ellipse_18" data-name="Ellipse 18" class="cls-1" transform="translate(1525 988)">
      <circle class="cls-2" cx="1.5" cy="1.5" r="1.5"/>
      <circle class="cls-3" cx="1.5" cy="1.5" r="1"/>
    </g>
    <g id="Ellipse_19" data-name="Ellipse 19" class="cls-1" transform="translate(1670 835)">
      <circle class="cls-2" cx="10.5" cy="10.5" r="10.5"/>
      <circle class="cls-3" cx="10.5" cy="10.5" r="10"/>
    </g>
    <g id="Ellipse_20" data-name="Ellipse 20" class="cls-1" transform="translate(1693 901)">
      <circle class="cls-2" cx="6" cy="6" r="6"/>
      <circle class="cls-3" cx="6" cy="6" r="5.5"/>
    </g>
    <g id="Ellipse_21" data-name="Ellipse 21" class="cls-1" transform="translate(1602 918)">
      <circle class="cls-2" cx="2.5" cy="2.5" r="2.5"/>
      <circle class="cls-3" cx="2.5" cy="2.5" r="2"/>
    </g>
    <g id="Ellipse_22" data-name="Ellipse 22" class="cls-1" transform="translate(1699 964)">
      <circle class="cls-2" cx="4" cy="4" r="4"/>
      <circle class="cls-3" cx="4" cy="4" r="3.5"/>
    </g>
    <g id="Ellipse_23" data-name="Ellipse 23" class="cls-1" transform="translate(1757 930)">
      <circle class="cls-2" cx="3.5" cy="3.5" r="3.5"/>
      <circle class="cls-3" cx="3.5" cy="3.5" r="3"/>
    </g>
    <g id="Ellipse_24" data-name="Ellipse 24" class="cls-1" transform="translate(1832 800)">
      <circle class="cls-2" cx="7" cy="7" r="7"/>
      <circle class="cls-3" cx="7" cy="7" r="6.5"/>
    </g>
    <g id="Ellipse_25" data-name="Ellipse 25" class="cls-1" transform="translate(1885 939)">
      <circle class="cls-2" cx="5.5" cy="5.5" r="5.5"/>
      <circle class="cls-3" cx="5.5" cy="5.5" r="5"/>
    </g>
    <g id="Ellipse_26" data-name="Ellipse 26" class="cls-1" transform="translate(1890 1007)">
      <circle class="cls-2" cx="3.5" cy="3.5" r="3.5"/>
      <circle class="cls-3" cx="3.5" cy="3.5" r="3"/>
    </g>
    <g id="Ellipse_28" data-name="Ellipse 28" class="cls-1" transform="translate(207 991)">
      <circle class="cls-2" cx="7" cy="7" r="7"/>
      <circle class="cls-3" cx="7" cy="7" r="6.5"/>
    </g>
    <g id="Ellipse_29" data-name="Ellipse 29" class="cls-1" transform="translate(66 896)">
      <circle class="cls-2" cx="8.5" cy="8.5" r="8.5"/>
      <circle class="cls-3" cx="8.5" cy="8.5" r="8"/>
    </g>
    <g id="Ellipse_31" data-name="Ellipse 31" class="cls-1" transform="translate(75 1023)">
      <circle class="cls-2" cx="3.5" cy="3.5" r="3.5"/>
      <circle class="cls-3" cx="3.5" cy="3.5" r="3"/>
    </g>
    <g id="Ellipse_27" data-name="Ellipse 27" class="cls-1" transform="translate(1921 871)">
      <circle class="cls-2" cx="5.5" cy="5.5" r="5.5"/>
      <circle class="cls-3" cx="5.5" cy="5.5" r="5"/>
    </g>
  </g>
</svg>
